<svg width="63" height="24" viewBox="0 0 63 24" fill="none" xmlns="http://www.w3.org/2000/svg">
<line x1="1.26276" y1="23" x2="1.26276" y2="1" stroke="url(#paint0_linear_5_196)" stroke-width="2" stroke-linecap="round"/>
<path d="M14.4167 13.1831V7.12728C14.4167 6.98363 14.3596 6.84585 14.258 6.74427C14.1564 6.64269 14.0187 6.58562 13.875 6.58562C13.7314 6.58562 13.5936 6.64269 13.492 6.74427C13.3904 6.84585 13.3333 6.98363 13.3333 7.12728V13.1831C13.0196 13.297 12.7486 13.5047 12.5571 13.778C12.3655 14.0512 12.2628 14.3769 12.2628 14.7106C12.2628 15.0443 12.3655 15.37 12.5571 15.6433C12.7486 15.9166 13.0196 16.1243 13.3333 16.2381V16.8773C13.3333 17.0209 13.3904 17.1587 13.492 17.2603C13.5936 17.3619 13.7314 17.419 13.875 17.419C14.0187 17.419 14.1564 17.3619 14.258 17.2603C14.3596 17.1587 14.4167 17.0209 14.4167 16.8773V16.2381C14.7304 16.1243 15.0014 15.9166 15.193 15.6433C15.3845 15.37 15.4873 15.0443 15.4873 14.7106C15.4873 14.3769 15.3845 14.0512 15.193 13.778C15.0014 13.5047 14.7304 13.297 14.4167 13.1831ZM13.875 15.2523C13.7679 15.2523 13.6632 15.2205 13.5741 15.161C13.485 15.1015 13.4156 15.0169 13.3746 14.9179C13.3336 14.8189 13.3229 14.71 13.3438 14.6049C13.3647 14.4999 13.4162 14.4034 13.492 14.3276C13.5678 14.2518 13.6643 14.2003 13.7693 14.1794C13.8744 14.1585 13.9833 14.1692 14.0823 14.2102C14.1813 14.2512 14.2659 14.3206 14.3254 14.4097C14.3849 14.4988 14.4167 14.6035 14.4167 14.7106C14.4167 14.8543 14.3596 14.9921 14.258 15.0936C14.1564 15.1952 14.0187 15.2523 13.875 15.2523ZM22 12.544C21.9991 12.2087 21.8945 11.8819 21.7005 11.6085C21.5066 11.335 21.2328 11.1282 20.9167 11.0165V7.12728C20.9167 6.98363 20.8596 6.84585 20.758 6.74427C20.6564 6.64269 20.5187 6.58562 20.375 6.58562C20.2314 6.58562 20.0936 6.64269 19.992 6.74427C19.8904 6.84585 19.8333 6.98363 19.8333 7.12728V11.0165C19.5196 11.1303 19.2486 11.338 19.0571 11.6113C18.8655 11.8846 18.7628 12.2102 18.7628 12.544C18.7628 12.8777 18.8655 13.2033 19.0571 13.4766C19.2486 13.7499 19.5196 13.9576 19.8333 14.0715V16.8773C19.8333 17.0209 19.8904 17.1587 19.992 17.2603C20.0936 17.3619 20.2314 17.419 20.375 17.419C20.5187 17.419 20.6564 17.3619 20.758 17.2603C20.8596 17.1587 20.9167 17.0209 20.9167 16.8773V14.0715C21.2328 13.9597 21.5066 13.7529 21.7005 13.4794C21.8945 13.206 21.9991 12.8792 22 12.544ZM20.375 13.0856C20.2679 13.0856 20.1632 13.0538 20.0741 12.9943C19.985 12.9348 19.9156 12.8502 19.8746 12.7512C19.8336 12.6523 19.8229 12.5434 19.8438 12.4383C19.8647 12.3332 19.9162 12.2367 19.992 12.1609C20.0678 12.0852 20.1643 12.0336 20.2693 12.0127C20.3744 11.9918 20.4833 12.0025 20.5823 12.0435C20.6813 12.0845 20.7659 12.1539 20.8254 12.243C20.8849 12.3321 20.9167 12.4368 20.9167 12.544C20.9167 12.6876 20.8596 12.8254 20.758 12.927C20.6564 13.0285 20.5187 13.0856 20.375 13.0856ZM18.75 8.21062C18.7509 7.91251 18.6697 7.61992 18.5154 7.36486C18.361 7.1098 18.1395 6.90211 17.8751 6.76451C17.6106 6.62691 17.3134 6.56471 17.016 6.58472C16.7185 6.60472 16.4323 6.70616 16.1887 6.87793C15.945 7.0497 15.7533 7.28518 15.6346 7.55861C15.5158 7.83203 15.4745 8.13286 15.5153 8.42817C15.556 8.72348 15.6772 9.00189 15.8656 9.23294C16.054 9.46398 16.3023 9.63875 16.5833 9.73812V16.8773C16.5833 17.0209 16.6404 17.1587 16.742 17.2603C16.8436 17.3619 16.9814 17.419 17.125 17.419C17.2687 17.419 17.4064 17.3619 17.508 17.2603C17.6096 17.1587 17.6667 17.0209 17.6667 16.8773V9.73812C17.9828 9.62636 18.2566 9.41958 18.4505 9.14611C18.6445 8.87264 18.7491 8.54588 18.75 8.21062ZM17.125 8.75228C17.0179 8.75228 16.9132 8.72052 16.8241 8.661C16.735 8.60148 16.6656 8.51688 16.6246 8.4179C16.5836 8.31893 16.5729 8.21002 16.5938 8.10494C16.6147 7.99987 16.6662 7.90336 16.742 7.8276C16.8178 7.75185 16.9143 7.70026 17.0193 7.67936C17.1244 7.65846 17.2333 7.66919 17.3323 7.71018C17.4313 7.75118 17.5159 7.82061 17.5754 7.90968C17.6349 7.99876 17.6667 8.10349 17.6667 8.21062C17.6667 8.35428 17.6096 8.49205 17.508 8.59363C17.4064 8.69522 17.2687 8.75228 17.125 8.75228Z" fill="white"/>
<path d="M39.313 7.12466C39.3129 7.00999 39.2804 6.89769 39.2192 6.80067C39.1581 6.70364 39.0708 6.62584 38.9675 6.57619C38.8641 6.52654 38.7488 6.50707 38.6349 6.52C38.5209 6.53294 38.4129 6.57776 38.3233 6.64932L35.4432 8.95292H32.6094C32.4478 8.95292 32.2928 9.01712 32.1785 9.13141C32.0642 9.2457 32 9.40071 32 9.56234V14.4377C32 14.5993 32.0642 14.7543 32.1785 14.8686C32.2928 14.9829 32.4478 15.0471 32.6094 15.0471H35.4432L38.3233 17.3507C38.4129 17.4223 38.5209 17.4671 38.6349 17.48C38.7488 17.4929 38.8641 17.4735 38.9675 17.4238C39.0708 17.3742 39.1581 17.2964 39.2192 17.1994C39.2804 17.1023 39.3129 16.99 39.313 16.8754V7.12466ZM36.0368 10.0377L38.0942 8.39225V15.6078L36.0368 13.9623C35.9289 13.8758 35.7948 13.8285 35.6565 13.8283H33.2189V10.1718H35.6565C35.7948 10.1715 35.9289 10.1242 36.0368 10.0377ZM43 12C43.0009 12.7204 42.8595 13.4339 42.5838 14.0995C42.3081 14.7651 41.9036 15.3696 41.3936 15.8783L40.5319 15.0166C40.9286 14.6209 41.2432 14.1507 41.4576 13.633C41.672 13.1153 41.7819 12.5603 41.7812 12C41.7819 11.4397 41.6719 10.8847 41.4575 10.3671C41.2431 9.84937 40.9285 9.37915 40.5319 8.98339L41.3936 8.12167C41.9036 8.63042 42.3081 9.23496 42.5838 9.90053C42.8595 10.5661 43.0009 11.2796 43 12Z" fill="white"/>
<path d="M53.7143 13.4286C53.3214 13.4286 53 13.75 53 14.1429V16.2857C53 16.6786 53.3214 17 53.7143 17H55.8572C56.25 17 56.5714 16.6786 56.5714 16.2857C56.5714 15.8929 56.25 15.5714 55.8572 15.5714H54.4286V14.1429C54.4286 13.75 54.1072 13.4286 53.7143 13.4286ZM53.7143 10.5714C54.1072 10.5714 54.4286 10.25 54.4286 9.85714V8.42857H55.8572C56.25 8.42857 56.5714 8.10714 56.5714 7.71429C56.5714 7.32143 56.25 7 55.8572 7H53.7143C53.3214 7 53 7.32143 53 7.71429V9.85714C53 10.25 53.3214 10.5714 53.7143 10.5714ZM61.5714 15.5714H60.1429C59.75 15.5714 59.4286 15.8929 59.4286 16.2857C59.4286 16.6786 59.75 17 60.1429 17H62.2857C62.6786 17 63 16.6786 63 16.2857V14.1429C63 13.75 62.6786 13.4286 62.2857 13.4286C61.8929 13.4286 61.5714 13.75 61.5714 14.1429V15.5714ZM59.4286 7.71429C59.4286 8.10714 59.75 8.42857 60.1429 8.42857H61.5714V9.85714C61.5714 10.25 61.8929 10.5714 62.2857 10.5714C62.6786 10.5714 63 10.25 63 9.85714V7.71429C63 7.32143 62.6786 7 62.2857 7H60.1429C59.75 7 59.4286 7.32143 59.4286 7.71429Z" fill="white"/>
<defs>
<linearGradient id="paint0_linear_5_196" x1="1.26276" y1="-2.89291e-08" x2="1.26276" y2="24" gradientUnits="userSpaceOnUse">
<stop stop-color="white" stop-opacity="0"/>
<stop offset="0.489583" stop-color="white" stop-opacity="0.51"/>
<stop offset="1" stop-color="white" stop-opacity="0"/>
</linearGradient>
</defs>
</svg>
