<svg width="28" height="28" viewBox="0 0 28 28" fill="none" xmlns="http://www.w3.org/2000/svg">
<circle cx="14" cy="14" r="14" fill="#C4C4C4"/>
<path d="M16.7083 10.375V18.625C16.7081 18.7085 16.685 18.7904 16.6417 18.8618C16.5984 18.9332 16.5364 18.9914 16.4624 19.0302C16.3884 19.069 16.3053 19.0869 16.2219 19.082C16.1385 19.077 16.0581 19.0495 15.9892 19.0022L10.0309 14.8772C9.78382 14.7062 9.78382 14.2946 10.0309 14.1232L15.9892 9.99823C16.0579 9.95048 16.1384 9.92248 16.2219 9.91727C16.3055 9.91206 16.3888 9.92984 16.4629 9.96867C16.5371 10.0075 16.5991 10.0659 16.6424 10.1375C16.6856 10.2092 16.7085 10.2913 16.7083 10.375Z" fill="white"/>
</svg>
