<svg width="28" height="28" viewBox="0 0 28 28" fill="none" xmlns="http://www.w3.org/2000/svg">
<circle cx="14" cy="14" r="14" transform="rotate(-180 14 14)" fill="#C4C4C4"/>
<g clip-path="url(#clip0_1_2)">
<path d="M11.2917 17.625V9.375C11.2919 9.29147 11.315 9.2096 11.3583 9.13819C11.4016 9.06678 11.4636 9.00854 11.5376 8.96974C11.6116 8.93094 11.6947 8.91305 11.7781 8.91799C11.8615 8.92294 11.9419 8.95052 12.0108 8.99779L17.9691 13.1228C18.2162 13.2937 18.2162 13.7053 17.9691 13.8767L12.0108 18.0017C11.9421 18.0495 11.8616 18.0775 11.7781 18.0827C11.6945 18.0879 11.6112 18.0701 11.5371 18.0313C11.4629 17.9925 11.4009 17.9341 11.3576 17.8624C11.3143 17.7908 11.2915 17.7087 11.2917 17.625Z" fill="white"/>
</g>
<defs>
<clipPath id="clip0_1_2">
<rect width="11" height="11" fill="white" transform="matrix(0 -1 -1 0 20 19)"/>
</clipPath>
</defs>
</svg>
