<svg width="44" height="20" viewBox="0 0 44 20" fill="none" xmlns="http://www.w3.org/2000/svg">
<rect y="0.5" width="44" height="19" rx="9.5" fill="white"/>
<path d="M13.04 13.6C12.48 13.6 12.0067 13.4467 11.62 13.14C11.2333 12.8267 10.94 12.4 10.74 11.86C10.5467 11.3133 10.45 10.6933 10.45 10C10.45 9.3 10.5467 8.68 10.74 8.14C10.94 7.59333 11.2333 7.16667 11.62 6.86C12.0067 6.55333 12.48 6.4 13.04 6.4C13.6 6.4 14.07 6.55333 14.45 6.86C14.8367 7.16667 15.13 7.59333 15.33 8.14C15.53 8.68 15.63 9.3 15.63 10C15.63 10.6933 15.53 11.3133 15.33 11.86C15.13 12.4 14.8367 12.8267 14.45 13.14C14.07 13.4467 13.6 13.6 13.04 13.6ZM13.04 12.59C13.3533 12.59 13.62 12.49 13.84 12.29C14.0667 12.09 14.24 11.7967 14.36 11.41C14.4867 11.0233 14.55 10.5533 14.55 10C14.55 9.44 14.4867 8.96667 14.36 8.58C14.24 8.19333 14.0667 7.9 13.84 7.7C13.62 7.5 13.3533 7.4 13.04 7.4C12.7267 7.4 12.4567 7.5 12.23 7.7C12.0033 7.9 11.83 8.19333 11.71 8.58C11.59 8.96667 11.53 9.44 11.53 10C11.53 10.5533 11.59 11.0233 11.71 11.41C11.83 11.7967 12.0033 12.09 12.23 12.29C12.4567 12.49 12.7267 12.59 13.04 12.59ZM18.424 13.5C18.2707 13.5 18.144 13.4533 18.044 13.36C17.944 13.26 17.894 13.1367 17.894 12.99V7.63L18.024 7.81L17.094 8.46C17.014 8.52667 16.9173 8.56 16.804 8.56C16.6707 8.56 16.5507 8.51 16.444 8.41C16.344 8.30333 16.294 8.18 16.294 8.04C16.294 7.86667 16.3807 7.72333 16.554 7.61L18.074 6.6C18.134 6.56 18.1973 6.53333 18.264 6.52C18.3373 6.50667 18.404 6.5 18.464 6.5C18.6173 6.5 18.7407 6.55 18.834 6.65C18.9273 6.74333 18.974 6.86333 18.974 7.01V12.99C18.974 13.1367 18.9207 13.26 18.814 13.36C18.714 13.4533 18.584 13.5 18.424 13.5ZM21.0821 9.5C20.9154 9.5 20.7854 9.45667 20.6921 9.37C20.6054 9.27667 20.5621 9.14667 20.5621 8.98V8.79C20.5621 8.62333 20.6054 8.49333 20.6921 8.4C20.7854 8.30667 20.9154 8.26 21.0821 8.26H21.1921C21.3588 8.26 21.4854 8.30667 21.5721 8.4C21.6588 8.49333 21.7021 8.62333 21.7021 8.79V8.98C21.7021 9.14667 21.6588 9.27667 21.5721 9.37C21.4854 9.45667 21.3588 9.5 21.1921 9.5H21.0821ZM21.0821 13.5C20.9154 13.5 20.7854 13.4533 20.6921 13.36C20.6054 13.2667 20.5621 13.1367 20.5621 12.97V12.79C20.5621 12.6167 20.6054 12.4867 20.6921 12.4C20.7854 12.3067 20.9154 12.26 21.0821 12.26H21.1921C21.3588 12.26 21.4854 12.3067 21.5721 12.4C21.6588 12.4867 21.7021 12.6167 21.7021 12.79V12.97C21.7021 13.1367 21.6588 13.2667 21.5721 13.36C21.4854 13.4533 21.3588 13.5 21.1921 13.5H21.0821ZM26.9835 12.57C27.1168 12.57 27.2268 12.6167 27.3135 12.71C27.4068 12.7967 27.4535 12.9067 27.4535 13.04C27.4535 13.1733 27.4068 13.2833 27.3135 13.37C27.2268 13.4567 27.1168 13.5 26.9835 13.5H23.4735C23.3268 13.5 23.2102 13.4567 23.1235 13.37C23.0368 13.2833 22.9935 13.1667 22.9935 13.02C22.9935 12.8867 23.0402 12.7667 23.1335 12.66L25.3635 10.25C25.6502 9.94333 25.8702 9.64 26.0235 9.34C26.1835 9.04 26.2635 8.77667 26.2635 8.55C26.2635 8.18333 26.1535 7.88667 25.9335 7.66C25.7135 7.43333 25.4235 7.32 25.0635 7.32C24.9102 7.32 24.7535 7.35667 24.5935 7.43C24.4402 7.49667 24.2935 7.59 24.1535 7.71C24.0202 7.82333 23.9035 7.95667 23.8035 8.11C23.7368 8.20333 23.6702 8.26333 23.6035 8.29C23.5368 8.31667 23.4735 8.33 23.4135 8.33C23.2868 8.33 23.1702 8.28667 23.0635 8.2C22.9635 8.10667 22.9135 8 22.9135 7.88C22.9135 7.78667 22.9435 7.69667 23.0035 7.61C23.0635 7.52333 23.1402 7.43333 23.2335 7.34C23.3802 7.16 23.5568 7 23.7635 6.86C23.9768 6.71333 24.2002 6.6 24.4335 6.52C24.6668 6.44 24.8968 6.4 25.1235 6.4C25.5635 6.4 25.9435 6.48667 26.2635 6.66C26.5902 6.83333 26.8402 7.07667 27.0135 7.39C27.1935 7.70333 27.2835 8.07333 27.2835 8.5C27.2835 8.86 27.1735 9.26 26.9535 9.7C26.7402 10.1333 26.4402 10.56 26.0535 10.98L24.5035 12.67L24.3935 12.57H26.9835ZM30.808 6.38C31.1814 6.38 31.5114 6.45333 31.798 6.6C32.0914 6.74667 32.3347 6.94667 32.528 7.2C32.728 7.44667 32.878 7.73 32.978 8.05C33.0847 8.36333 33.138 8.69 33.138 9.03C33.138 9.29 33.108 9.59 33.048 9.93C32.988 10.2633 32.888 10.6133 32.748 10.98C32.608 11.3467 32.4214 11.7 32.188 12.04C31.9614 12.38 31.6747 12.6867 31.328 12.96C30.988 13.2267 30.5814 13.4333 30.108 13.58C30.0414 13.5933 29.978 13.6 29.918 13.6C29.7847 13.6 29.6647 13.5633 29.558 13.49C29.458 13.4167 29.408 13.2967 29.408 13.13C29.408 13.0033 29.448 12.8967 29.528 12.81C29.608 12.7233 29.7147 12.66 29.848 12.62C30.1747 12.5 30.4947 12.3167 30.808 12.07C31.1214 11.8167 31.3914 11.52 31.618 11.18C31.8447 10.8333 31.998 10.4633 32.078 10.07L32.328 10.03C32.228 10.17 32.1014 10.3133 31.948 10.46C31.7947 10.6067 31.6114 10.73 31.398 10.83C31.1847 10.9233 30.938 10.97 30.658 10.97C30.2247 10.97 29.848 10.8733 29.528 10.68C29.208 10.48 28.9614 10.2067 28.788 9.86C28.6147 9.51333 28.528 9.11667 28.528 8.67C28.528 8.25667 28.628 7.87667 28.828 7.53C29.0347 7.18333 29.308 6.90667 29.648 6.7C29.9947 6.48667 30.3814 6.38 30.808 6.38ZM30.818 7.3C30.5714 7.3 30.3514 7.36 30.158 7.48C29.9647 7.6 29.8114 7.76333 29.698 7.97C29.5847 8.17667 29.528 8.41 29.528 8.67C29.528 8.93 29.578 9.16667 29.678 9.38C29.778 9.58667 29.9247 9.75 30.118 9.87C30.3114 9.99 30.538 10.05 30.798 10.05C31.058 10.05 31.288 9.99 31.488 9.87C31.688 9.74333 31.8447 9.57333 31.958 9.36C32.0714 9.14667 32.128 8.91333 32.128 8.66C32.128 8.40667 32.0714 8.18 31.958 7.98C31.8447 7.77333 31.6914 7.61 31.498 7.49C31.3047 7.36333 31.078 7.3 30.818 7.3Z" fill="#2C383B"/>
</svg>
