<svg width="28" height="28" viewBox="0 0 28 28" fill="none" xmlns="http://www.w3.org/2000/svg">
<circle cx="14" cy="14" r="14" fill="#C4C4C4"/>
<path d="M10.2917 10.375V18.625C10.2919 18.7085 10.315 18.7904 10.3583 18.8618C10.4016 18.9332 10.4636 18.9914 10.5376 19.0302C10.6116 19.069 10.6947 19.0869 10.7781 19.082C10.8615 19.077 10.9419 19.0495 11.0108 19.0022L16.9691 14.8772C17.2162 14.7062 17.2162 14.2946 16.9691 14.1232L11.0108 9.99823C10.9421 9.95048 10.8616 9.92248 10.7781 9.91727C10.6945 9.91206 10.6112 9.92984 10.5371 9.96867C10.4629 10.0075 10.4009 10.0659 10.3576 10.1375C10.3144 10.2092 10.2915 10.2913 10.2917 10.375Z" fill="white"/>
</svg>
