<svg width="85" height="19" viewBox="0 0 85 19" fill="none" xmlns="http://www.w3.org/2000/svg">
<g filter="url(#filter0_b_5_286)">
<rect width="85" height="19" rx="9.5" fill="white" fill-opacity="0.5"/>
<path d="M11.55 13C11.4033 13 11.2867 12.9433 11.2 12.83C11.12 12.7167 11.09 12.58 11.11 12.42L12.15 6.37C12.17 6.25667 12.22 6.16667 12.3 6.1C12.38 6.03333 12.4733 6 12.58 6C12.7333 6 12.8533 6.05667 12.94 6.17C13.0267 6.28333 13.0567 6.42 13.03 6.58L11.99 12.63C11.9767 12.7367 11.9267 12.8267 11.84 12.9C11.76 12.9667 11.6633 13 11.55 13ZM11.17 8.53C11.0367 8.53 10.9233 8.48667 10.83 8.4C10.7433 8.30667 10.7 8.19333 10.7 8.06C10.7 7.93333 10.7433 7.83 10.83 7.75C10.9233 7.67 11.0367 7.63 11.17 7.63H16.01C16.1433 7.63 16.2533 7.67667 16.34 7.77C16.4333 7.85667 16.48 7.96667 16.48 8.1C16.48 8.22667 16.4333 8.33 16.34 8.41C16.2533 8.49 16.1433 8.53 16.01 8.53H11.17ZM14.22 13C14.0667 13 13.9467 12.9433 13.86 12.83C13.7733 12.7167 13.7433 12.58 13.77 12.42L14.81 6.37C14.83 6.25667 14.88 6.16667 14.96 6.1C15.04 6.03333 15.1367 6 15.25 6C15.4033 6 15.52 6.05667 15.6 6.17C15.6867 6.28333 15.7167 6.42 15.69 6.58L14.65 12.63C14.6367 12.7367 14.59 12.8267 14.51 12.9C14.43 12.9667 14.3333 13 14.22 13ZM10.79 11.32C10.6567 11.32 10.5433 11.2767 10.45 11.19C10.3633 11.0967 10.32 10.9867 10.32 10.86C10.32 10.7333 10.3633 10.63 10.45 10.55C10.5433 10.47 10.6567 10.43 10.79 10.43H15.64C15.7733 10.43 15.8833 10.4733 15.97 10.56C16.0633 10.6467 16.11 10.7567 16.11 10.89C16.11 11.0167 16.0633 11.12 15.97 11.2C15.8833 11.28 15.7733 11.32 15.64 11.32H10.79ZM19.1369 13C18.9835 13 18.8569 12.9533 18.7569 12.86C18.6569 12.76 18.6069 12.6367 18.6069 12.49V7.13L18.7369 7.31L17.8069 7.96C17.7269 8.02667 17.6302 8.06 17.5169 8.06C17.3835 8.06 17.2635 8.01 17.1569 7.91C17.0569 7.80333 17.0069 7.68 17.0069 7.54C17.0069 7.36667 17.0935 7.22333 17.2669 7.11L18.7869 6.1C18.8469 6.06 18.9102 6.03333 18.9769 6.02C19.0502 6.00667 19.1169 6 19.1769 6C19.3302 6 19.4535 6.05 19.5469 6.15C19.6402 6.24333 19.6869 6.36333 19.6869 6.51V12.49C19.6869 12.6367 19.6335 12.76 19.5269 12.86C19.4269 12.9533 19.2969 13 19.1369 13ZM26.4982 13C26.3382 13 26.2082 12.9533 26.1082 12.86C26.0149 12.76 25.9682 12.6367 25.9682 12.49V6.5H27.0382V12.49C27.0382 12.6367 26.9849 12.76 26.8782 12.86C26.7782 12.9533 26.6515 13 26.4982 13ZM24.2282 6.96C24.0882 6.96 23.9682 6.91667 23.8682 6.83C23.7682 6.73667 23.7182 6.61667 23.7182 6.47C23.7182 6.33 23.7682 6.21667 23.8682 6.13C23.9682 6.04333 24.0882 6 24.2282 6H28.7782C28.9182 6 29.0349 6.04667 29.1282 6.14C29.2282 6.22667 29.2782 6.34 29.2782 6.48C29.2782 6.62667 29.2282 6.74333 29.1282 6.83C29.0349 6.91667 28.9182 6.96 28.7782 6.96H24.2282ZM30.2039 13C30.0572 13 29.9372 12.9533 29.8439 12.86C29.7506 12.76 29.7039 12.6367 29.7039 12.49V8.25C29.7039 8.10333 29.7506 7.98333 29.8439 7.89C29.9372 7.79 30.0572 7.74 30.2039 7.74C30.3439 7.74 30.4606 7.79 30.5539 7.89C30.6539 7.98333 30.7039 8.10333 30.7039 8.25V9.37L30.6039 8.94C30.6572 8.75333 30.7372 8.58 30.8439 8.42C30.9572 8.26 31.0906 8.12 31.2439 8C31.3972 7.88 31.5672 7.78667 31.7539 7.72C31.9472 7.65333 32.1472 7.62 32.3539 7.62C32.5272 7.62 32.6772 7.66667 32.8039 7.76C32.9306 7.85333 32.9939 7.97 32.9939 8.11C32.9939 8.29 32.9472 8.42333 32.8539 8.51C32.7606 8.59 32.6572 8.63 32.5439 8.63C32.4439 8.63 32.3472 8.61 32.2539 8.57C32.1606 8.52333 32.0506 8.5 31.9239 8.5C31.7839 8.5 31.6406 8.53667 31.4939 8.61C31.3472 8.68333 31.2139 8.79333 31.0939 8.94C30.9739 9.08 30.8772 9.24667 30.8039 9.44C30.7372 9.63333 30.7039 9.85 30.7039 10.09V12.49C30.7039 12.6367 30.6539 12.76 30.5539 12.86C30.4606 12.9533 30.3439 13 30.2039 13ZM36.109 13.1C35.5557 13.1 35.0757 12.9867 34.669 12.76C34.2623 12.5267 33.9457 12.21 33.719 11.81C33.499 11.4033 33.389 10.94 33.389 10.42C33.389 9.83333 33.5057 9.33333 33.739 8.92C33.979 8.5 34.289 8.18 34.669 7.96C35.049 7.73333 35.4523 7.62 35.879 7.62C36.2057 7.62 36.5157 7.68667 36.809 7.82C37.1023 7.94667 37.3623 8.12667 37.589 8.36C37.8223 8.58667 38.0057 8.85667 38.139 9.17C38.2723 9.47667 38.3423 9.81333 38.349 10.18C38.3423 10.3133 38.289 10.4233 38.189 10.51C38.089 10.5967 37.9723 10.64 37.839 10.64H33.949L33.709 9.79H37.469L37.279 9.97V9.72C37.2657 9.48667 37.189 9.28333 37.049 9.11C36.909 8.93 36.7357 8.79333 36.529 8.7C36.3223 8.6 36.1057 8.55 35.879 8.55C35.679 8.55 35.4857 8.58333 35.299 8.65C35.119 8.71 34.9557 8.81 34.809 8.95C34.669 9.09 34.5557 9.27667 34.469 9.51C34.389 9.73667 34.349 10.02 34.349 10.36C34.349 10.7267 34.4257 11.0467 34.579 11.32C34.7323 11.5933 34.939 11.8067 35.199 11.96C35.459 12.1067 35.7457 12.18 36.059 12.18C36.3057 12.18 36.509 12.1567 36.669 12.11C36.829 12.0567 36.9623 11.9933 37.069 11.92C37.1757 11.8467 37.269 11.7767 37.349 11.71C37.449 11.65 37.549 11.62 37.649 11.62C37.769 11.62 37.869 11.6633 37.949 11.75C38.029 11.83 38.069 11.9267 38.069 12.04C38.069 12.1867 37.9957 12.32 37.849 12.44C37.669 12.6133 37.419 12.7667 37.099 12.9C36.7857 13.0333 36.4557 13.1 36.109 13.1ZM42.1893 7.62C42.6626 7.62 43.0293 7.72 43.2893 7.92C43.5493 8.11333 43.7293 8.37667 43.8293 8.71C43.936 9.03667 43.9893 9.40333 43.9893 9.81V12.49C43.9893 12.6367 43.9393 12.76 43.8393 12.86C43.746 12.9533 43.6293 13 43.4893 13C43.3426 13 43.2226 12.9533 43.1293 12.86C43.036 12.76 42.9893 12.6367 42.9893 12.49V9.82C42.9893 9.58 42.956 9.36667 42.8893 9.18C42.8226 8.98667 42.706 8.83333 42.5393 8.72C42.3793 8.6 42.1526 8.54 41.8593 8.54C41.586 8.54 41.346 8.6 41.1393 8.72C40.9326 8.83333 40.7693 8.98667 40.6493 9.18C40.536 9.36667 40.4793 9.58 40.4793 9.82V12.49C40.4793 12.6367 40.4293 12.76 40.3293 12.86C40.236 12.9533 40.1193 13 39.9793 13C39.8326 13 39.7126 12.9533 39.6193 12.86C39.526 12.76 39.4793 12.6367 39.4793 12.49V8.25C39.4793 8.10333 39.526 7.98333 39.6193 7.89C39.7126 7.79 39.8326 7.74 39.9793 7.74C40.1193 7.74 40.236 7.79 40.3293 7.89C40.4293 7.98333 40.4793 8.10333 40.4793 8.25V8.81L40.2993 8.91C40.346 8.76333 40.426 8.61667 40.5393 8.47C40.6593 8.31667 40.8026 8.17667 40.9693 8.05C41.136 7.91667 41.3226 7.81333 41.5293 7.74C41.736 7.66 41.956 7.62 42.1893 7.62ZM49.6877 5.6C49.8344 5.6 49.9544 5.64667 50.0477 5.74C50.1411 5.83333 50.1877 5.95667 50.1877 6.11V12.49C50.1877 12.6367 50.1411 12.76 50.0477 12.86C49.9544 12.9533 49.8344 13 49.6877 13C49.5477 13 49.4277 12.9533 49.3277 12.86C49.2344 12.76 49.1877 12.6367 49.1877 12.49V11.77L49.3977 11.78C49.3977 11.9 49.3477 12.0367 49.2477 12.19C49.1544 12.3367 49.0244 12.48 48.8577 12.62C48.6911 12.76 48.4944 12.8767 48.2677 12.97C48.0411 13.0567 47.7977 13.1 47.5377 13.1C47.0777 13.1 46.6644 12.9833 46.2977 12.75C45.9311 12.51 45.6411 12.1867 45.4277 11.78C45.2144 11.3667 45.1077 10.8933 45.1077 10.36C45.1077 9.82667 45.2144 9.35667 45.4277 8.95C45.6411 8.53667 45.9277 8.21333 46.2877 7.98C46.6544 7.74 47.0611 7.62 47.5077 7.62C47.7877 7.62 48.0477 7.66667 48.2877 7.76C48.5344 7.85333 48.7477 7.97333 48.9277 8.12C49.1077 8.26667 49.2477 8.42333 49.3477 8.59C49.4477 8.75 49.4977 8.90333 49.4977 9.05L49.1877 9.08V6.11C49.1877 5.96333 49.2344 5.84333 49.3277 5.75C49.4277 5.65 49.5477 5.6 49.6877 5.6ZM47.6477 12.18C47.9677 12.18 48.2444 12.1 48.4777 11.94C48.7177 11.78 48.9044 11.5633 49.0377 11.29C49.1711 11.0167 49.2377 10.7067 49.2377 10.36C49.2377 10.0133 49.1711 9.70333 49.0377 9.43C48.9044 9.15667 48.7177 8.94 48.4777 8.78C48.2377 8.62 47.9611 8.54 47.6477 8.54C47.3411 8.54 47.0677 8.62 46.8277 8.78C46.5944 8.94 46.4077 9.15667 46.2677 9.43C46.1344 9.70333 46.0677 10.0133 46.0677 10.36C46.0677 10.7067 46.1344 11.0167 46.2677 11.29C46.4077 11.5633 46.5944 11.78 46.8277 11.94C47.0677 12.1 47.3411 12.18 47.6477 12.18ZM52.5287 12.49C52.5287 12.6367 52.482 12.76 52.3887 12.86C52.2953 12.9533 52.1753 13 52.0287 13C51.8887 13 51.7687 12.9533 51.6687 12.86C51.5753 12.76 51.5287 12.6367 51.5287 12.49V8.21C51.5287 8.06333 51.5753 7.94333 51.6687 7.85C51.7687 7.75 51.8887 7.7 52.0287 7.7C52.1753 7.7 52.2953 7.75 52.3887 7.85C52.482 7.94333 52.5287 8.06333 52.5287 8.21V12.49ZM52.0187 7.04C51.8253 7.04 51.6853 7.00667 51.5987 6.94C51.512 6.86667 51.4687 6.74667 51.4687 6.58V6.42C51.4687 6.25333 51.5153 6.13667 51.6087 6.07C51.702 6.00333 51.842 5.97 52.0287 5.97C52.2287 5.97 52.372 6.00667 52.4587 6.08C52.5453 6.14667 52.5887 6.26 52.5887 6.42V6.58C52.5887 6.75333 52.542 6.87333 52.4487 6.94C52.362 7.00667 52.2187 7.04 52.0187 7.04ZM56.5838 7.62C57.0572 7.62 57.4238 7.72 57.6838 7.92C57.9438 8.11333 58.1238 8.37667 58.2238 8.71C58.3305 9.03667 58.3838 9.40333 58.3838 9.81V12.49C58.3838 12.6367 58.3338 12.76 58.2338 12.86C58.1405 12.9533 58.0238 13 57.8838 13C57.7372 13 57.6172 12.9533 57.5238 12.86C57.4305 12.76 57.3838 12.6367 57.3838 12.49V9.82C57.3838 9.58 57.3505 9.36667 57.2838 9.18C57.2172 8.98667 57.1005 8.83333 56.9338 8.72C56.7738 8.6 56.5472 8.54 56.2538 8.54C55.9805 8.54 55.7405 8.6 55.5338 8.72C55.3272 8.83333 55.1638 8.98667 55.0438 9.18C54.9305 9.36667 54.8738 9.58 54.8738 9.82V12.49C54.8738 12.6367 54.8238 12.76 54.7238 12.86C54.6305 12.9533 54.5138 13 54.3738 13C54.2272 13 54.1072 12.9533 54.0138 12.86C53.9205 12.76 53.8738 12.6367 53.8738 12.49V8.25C53.8738 8.10333 53.9205 7.98333 54.0138 7.89C54.1072 7.79 54.2272 7.74 54.3738 7.74C54.5138 7.74 54.6305 7.79 54.7238 7.89C54.8238 7.98333 54.8738 8.10333 54.8738 8.25V8.81L54.6938 8.91C54.7405 8.76333 54.8205 8.61667 54.9338 8.47C55.0538 8.31667 55.1972 8.17667 55.3638 8.05C55.5305 7.91667 55.7172 7.81333 55.9238 7.74C56.1305 7.66 56.3505 7.62 56.5838 7.62ZM61.9623 7.62C62.2489 7.62 62.5123 7.66667 62.7523 7.76C62.9923 7.85333 63.1989 7.97333 63.3723 8.12C63.5523 8.26 63.6923 8.40667 63.7923 8.56C63.8923 8.71333 63.9423 8.84667 63.9423 8.96L63.7123 8.97V8.17C63.7123 8.03 63.7589 7.91 63.8523 7.81C63.9456 7.71 64.0656 7.66 64.2123 7.66C64.3589 7.66 64.4789 7.71 64.5723 7.81C64.6656 7.90333 64.7123 8.02333 64.7123 8.17V12.58C64.7123 13.1467 64.5923 13.6067 64.3523 13.96C64.1123 14.32 63.7923 14.5833 63.3923 14.75C62.9989 14.9167 62.5656 15 62.0923 15C61.9256 15 61.7289 14.9767 61.5023 14.93C61.2756 14.89 61.0656 14.84 60.8723 14.78C60.6856 14.72 60.5556 14.66 60.4823 14.6C60.3289 14.52 60.2256 14.4267 60.1723 14.32C60.1256 14.2133 60.1256 14.1067 60.1723 14C60.2389 13.8533 60.3289 13.7633 60.4423 13.73C60.5556 13.6967 60.6856 13.7067 60.8323 13.76C60.8989 13.78 61.0023 13.8167 61.1423 13.87C61.2823 13.9233 61.4389 13.97 61.6123 14.01C61.7856 14.0567 61.9489 14.08 62.1023 14.08C62.6356 14.08 63.0356 13.9567 63.3023 13.71C63.5756 13.4633 63.7123 13.1267 63.7123 12.7V11.8L63.8223 11.87C63.8023 12.01 63.7389 12.1533 63.6323 12.3C63.5323 12.44 63.3989 12.57 63.2323 12.69C63.0656 12.81 62.8723 12.91 62.6523 12.99C62.4389 13.0633 62.2189 13.1 61.9923 13.1C61.5189 13.1 61.0956 12.9833 60.7223 12.75C60.3489 12.51 60.0523 12.1867 59.8323 11.78C59.6123 11.3667 59.5023 10.8933 59.5023 10.36C59.5023 9.82667 59.6123 9.35667 59.8323 8.95C60.0523 8.53667 60.3456 8.21333 60.7123 7.98C61.0856 7.74 61.5023 7.62 61.9623 7.62ZM62.1123 8.54C61.7856 8.54 61.4989 8.62 61.2523 8.78C61.0056 8.94 60.8123 9.15667 60.6723 9.43C60.5323 9.70333 60.4623 10.0133 60.4623 10.36C60.4623 10.7067 60.5323 11.0167 60.6723 11.29C60.8123 11.5633 61.0056 11.78 61.2523 11.94C61.4989 12.1 61.7856 12.18 62.1123 12.18C62.4389 12.18 62.7256 12.1033 62.9723 11.95C63.2189 11.79 63.4123 11.5733 63.5523 11.3C63.6923 11.02 63.7623 10.7067 63.7623 10.36C63.7623 10.0133 63.6923 9.70333 63.5523 9.43C63.4123 9.15 63.2189 8.93333 62.9723 8.78C62.7256 8.62 62.4389 8.54 62.1123 8.54Z" fill="white"/>
<g clip-path="url(#clip0_5_286)">
<path d="M69.2225 8.04562C69.1869 8.42562 69.1619 9.09812 69.3863 9.38437C69.3863 9.38437 69.2806 8.64562 70.2275 7.71874C70.6088 7.34562 70.6969 6.83812 70.5638 6.45749C70.4881 6.24187 70.35 6.06374 70.23 5.93937C70.16 5.86624 70.2138 5.74562 70.3156 5.74999C70.9319 5.77749 71.9306 5.94874 72.355 7.01374C72.5413 7.48124 72.555 7.96437 72.4663 8.45562C72.41 8.76937 72.21 9.46687 72.6663 9.55249C72.9919 9.61374 73.1494 9.35499 73.22 9.16874C73.2494 9.09124 73.3513 9.07187 73.4063 9.13374C73.9563 9.75937 74.0031 10.4962 73.8894 11.1306C73.6694 12.3569 72.4275 13.2494 71.1938 13.2494C69.6525 13.2494 68.4256 12.3675 68.1075 10.7712C67.9794 10.1269 68.0444 8.85187 69.0381 7.95187C69.1119 7.88437 69.2325 7.94437 69.2225 8.04562Z" fill="url(#paint0_radial_5_286)"/>
<path d="M71.7569 10.3387C71.1887 9.60745 71.4431 8.77307 71.5825 8.44057C71.6012 8.39682 71.5512 8.35557 71.5119 8.38245C71.2675 8.5487 70.7669 8.93995 70.5337 9.49057C70.2181 10.2349 70.2406 10.5993 70.4275 11.0443C70.54 11.3124 70.4094 11.3693 70.3437 11.3793C70.28 11.3893 70.2212 11.3468 70.1744 11.3024C70.0395 11.173 69.9434 11.0085 69.8969 10.8274C69.8869 10.7887 69.8362 10.7781 69.8131 10.8099C69.6381 11.0518 69.5475 11.4399 69.5431 11.7143C69.5294 12.5624 70.23 13.2499 71.0775 13.2499C72.1456 13.2499 72.9237 12.0687 72.31 11.0812C72.1319 10.7937 71.9644 10.6056 71.7569 10.3387Z" fill="url(#paint1_radial_5_286)"/>
</g>
</g>
<defs>
<filter id="filter0_b_5_286" x="-5" y="-5" width="95" height="29" filterUnits="userSpaceOnUse" color-interpolation-filters="sRGB">
<feFlood flood-opacity="0" result="BackgroundImageFix"/>
<feGaussianBlur in="BackgroundImageFix" stdDeviation="2.5"/>
<feComposite in2="SourceAlpha" operator="in" result="effect1_backgroundBlur_5_286"/>
<feBlend mode="normal" in="SourceGraphic" in2="effect1_backgroundBlur_5_286" result="shape"/>
</filter>
<radialGradient id="paint0_radial_5_286" cx="0" cy="0" r="1" gradientUnits="userSpaceOnUse" gradientTransform="translate(70.8885 13.2688) rotate(-179.751) scale(4.41173 7.23877)">
<stop offset="0.314" stop-color="#FF9800"/>
<stop offset="0.662" stop-color="#FF6D00"/>
<stop offset="0.972" stop-color="#F44336"/>
</radialGradient>
<radialGradient id="paint1_radial_5_286" cx="0" cy="0" r="1" gradientUnits="userSpaceOnUse" gradientTransform="translate(71.1362 8.87859) rotate(90.5787) scale(4.61602 3.47391)">
<stop offset="0.214" stop-color="#FFF176"/>
<stop offset="0.328" stop-color="#FFF27D"/>
<stop offset="0.487" stop-color="#FFF48F"/>
<stop offset="0.672" stop-color="#FFF7AD"/>
<stop offset="0.793" stop-color="#FFF9C4"/>
<stop offset="0.822" stop-color="#FFF8BD" stop-opacity="0.804"/>
<stop offset="0.863" stop-color="#FFF6AB" stop-opacity="0.529"/>
<stop offset="0.91" stop-color="#FFF38D" stop-opacity="0.209"/>
<stop offset="0.941" stop-color="#FFF176" stop-opacity="0"/>
</radialGradient>
<clipPath id="clip0_5_286">
<rect width="8" height="8" fill="white" transform="translate(67 5.5)"/>
</clipPath>
</defs>
</svg>
