<svg width="100" height="30" viewBox="0 0 100 30" fill="none" xmlns="http://www.w3.org/2000/svg">
<rect width="100" height="30" rx="5" fill="#F36F45"/>
<circle cx="20" cy="15" r="10" fill="#C4C4C4" fill-opacity="0.5"/>
<path d="M17.3512 12.4107V18.3036C17.3513 18.3632 17.3678 18.4217 17.3988 18.4727C17.4297 18.5237 17.474 18.5653 17.5268 18.593C17.5796 18.6207 17.639 18.6335 17.6986 18.63C17.7582 18.6265 17.8156 18.6068 17.8648 18.573L22.1208 15.6266C22.2972 15.5044 22.2972 15.2105 22.1208 15.088L17.8648 12.1416C17.8157 12.1075 17.7582 12.0875 17.6986 12.0838C17.6389 12.08 17.5794 12.0927 17.5264 12.1205C17.4735 12.1482 17.4292 12.1899 17.3983 12.2411C17.3674 12.2923 17.3511 12.3509 17.3512 12.4107Z" fill="white"/>
<path d="M43.76 11.47C43.8933 11.47 44.0167 11.52 44.13 11.62C44.2433 11.7133 44.3 11.8433 44.3 12.01C44.3 12.0567 44.29 12.1133 44.27 12.18L42.22 18.18C42.1867 18.28 42.1267 18.3567 42.04 18.41C41.9533 18.4633 41.8633 18.4933 41.77 18.5C41.6767 18.5 41.5833 18.4733 41.49 18.42C41.3967 18.3667 41.3267 18.2867 41.28 18.18L39.7 14.48L39.79 14.52L38.23 18.18C38.1767 18.2867 38.1033 18.3667 38.01 18.42C37.9233 18.4733 37.83 18.5 37.73 18.5C37.6433 18.4933 37.5567 18.4633 37.47 18.41C37.3833 18.3567 37.3233 18.28 37.29 18.18L35.24 12.18C35.22 12.1133 35.21 12.0567 35.21 12.01C35.21 11.8433 35.27 11.7133 35.39 11.62C35.51 11.52 35.6333 11.47 35.76 11.47C35.8667 11.47 35.9633 11.5 36.05 11.56C36.1433 11.6133 36.2067 11.6933 36.24 11.8L37.97 16.96H37.79L39.31 13.24C39.3567 13.14 39.42 13.06 39.5 13C39.5867 12.94 39.6833 12.9133 39.79 12.92C39.8967 12.9133 39.99 12.94 40.07 13C40.1567 13.06 40.22 13.14 40.26 13.24L41.7 16.85L41.55 16.93L43.27 11.8C43.3033 11.6933 43.3667 11.6133 43.46 11.56C43.5533 11.5 43.6533 11.47 43.76 11.47ZM49.4338 13.16C49.5805 13.16 49.7005 13.21 49.7938 13.31C49.8872 13.4033 49.9338 13.5233 49.9338 13.67V17.99C49.9338 18.1367 49.8872 18.26 49.7938 18.36C49.7005 18.4533 49.5805 18.5 49.4338 18.5C49.2938 18.5 49.1738 18.4533 49.0738 18.36C48.9805 18.26 48.9338 18.1367 48.9338 17.99V17.27L49.1438 17.3C49.1438 17.42 49.0938 17.5533 48.9938 17.7C48.9005 17.8467 48.7705 17.99 48.6038 18.13C48.4372 18.2633 48.2405 18.3767 48.0138 18.47C47.7872 18.5567 47.5438 18.6 47.2838 18.6C46.8238 18.6 46.4105 18.4833 46.0438 18.25C45.6772 18.01 45.3872 17.6833 45.1738 17.27C44.9605 16.8567 44.8538 16.3867 44.8538 15.86C44.8538 15.32 44.9605 14.8467 45.1738 14.44C45.3872 14.0267 45.6738 13.7033 46.0338 13.47C46.4005 13.2367 46.8072 13.12 47.2538 13.12C47.5405 13.12 47.8038 13.1667 48.0438 13.26C48.2905 13.3533 48.5038 13.4733 48.6838 13.62C48.8638 13.7667 49.0005 13.9233 49.0938 14.09C49.1938 14.25 49.2438 14.4033 49.2438 14.55L48.9338 14.58V13.67C48.9338 13.53 48.9805 13.41 49.0738 13.31C49.1738 13.21 49.2938 13.16 49.4338 13.16ZM47.3938 17.68C47.7072 17.68 47.9838 17.6 48.2238 17.44C48.4638 17.28 48.6505 17.0633 48.7838 16.79C48.9172 16.51 48.9838 16.2 48.9838 15.86C48.9838 15.5133 48.9172 15.2033 48.7838 14.93C48.6505 14.6567 48.4638 14.44 48.2238 14.28C47.9838 14.12 47.7072 14.04 47.3938 14.04C47.0872 14.04 46.8138 14.12 46.5738 14.28C46.3405 14.44 46.1538 14.6567 46.0138 14.93C45.8805 15.2033 45.8138 15.5133 45.8138 15.86C45.8138 16.2 45.8805 16.51 46.0138 16.79C46.1538 17.0633 46.3405 17.28 46.5738 17.44C46.8138 17.6 47.0872 17.68 47.3938 17.68ZM51.2648 13.3H53.6148C53.7481 13.3 53.8581 13.3467 53.9448 13.44C54.0381 13.5267 54.0848 13.6367 54.0848 13.77C54.0848 13.8967 54.0381 14.0033 53.9448 14.09C53.8581 14.1767 53.7481 14.22 53.6148 14.22H51.2648C51.1314 14.22 51.0181 14.1767 50.9248 14.09C50.8381 13.9967 50.7948 13.8867 50.7948 13.76C50.7948 13.6267 50.8381 13.5167 50.9248 13.43C51.0181 13.3433 51.1314 13.3 51.2648 13.3ZM52.3148 12C52.4614 12 52.5814 12.05 52.6748 12.15C52.7681 12.2433 52.8148 12.3633 52.8148 12.51V17.15C52.8148 17.27 52.8348 17.3667 52.8748 17.44C52.9148 17.5133 52.9681 17.5633 53.0348 17.59C53.1081 17.6167 53.1814 17.63 53.2548 17.63C53.3281 17.63 53.3914 17.6167 53.4448 17.59C53.5048 17.5633 53.5748 17.55 53.6548 17.55C53.7348 17.55 53.8081 17.5867 53.8748 17.66C53.9414 17.7333 53.9748 17.8333 53.9748 17.96C53.9748 18.12 53.8881 18.25 53.7148 18.35C53.5414 18.45 53.3548 18.5 53.1548 18.5C53.0414 18.5 52.9081 18.49 52.7548 18.47C52.6014 18.45 52.4514 18.4 52.3048 18.32C52.1648 18.24 52.0481 18.1133 51.9548 17.94C51.8614 17.76 51.8148 17.51 51.8148 17.19V12.51C51.8148 12.3633 51.8614 12.2433 51.9548 12.15C52.0548 12.05 52.1748 12 52.3148 12ZM57.4734 13.12C57.8334 13.12 58.1534 13.16 58.4334 13.24C58.7134 13.3133 58.93 13.42 59.0834 13.56C59.2434 13.6933 59.3234 13.85 59.3234 14.03C59.3234 14.1433 59.29 14.25 59.2234 14.35C59.1567 14.4433 59.0567 14.49 58.9234 14.49C58.83 14.49 58.75 14.4733 58.6834 14.44C58.6234 14.4067 58.5667 14.3667 58.5134 14.32C58.46 14.2733 58.3934 14.2267 58.3134 14.18C58.24 14.14 58.13 14.1067 57.9834 14.08C57.8434 14.0533 57.7167 14.04 57.6034 14.04C57.25 14.04 56.9434 14.12 56.6834 14.28C56.43 14.44 56.23 14.6567 56.0834 14.93C55.9434 15.2033 55.8734 15.5133 55.8734 15.86C55.8734 16.2067 55.9434 16.5167 56.0834 16.79C56.23 17.0633 56.4267 17.28 56.6734 17.44C56.9267 17.6 57.22 17.68 57.5534 17.68C57.7534 17.68 57.9167 17.6667 58.0434 17.64C58.17 17.6067 58.28 17.5667 58.3734 17.52C58.4734 17.46 58.5567 17.4 58.6234 17.34C58.6967 17.2733 58.7967 17.24 58.9234 17.24C59.07 17.24 59.18 17.2867 59.2534 17.38C59.3334 17.4667 59.3734 17.5767 59.3734 17.71C59.3734 17.8567 59.2834 18 59.1034 18.14C58.93 18.2733 58.6967 18.3833 58.4034 18.47C58.11 18.5567 57.7867 18.6 57.4334 18.6C56.9134 18.6 56.46 18.48 56.0734 18.24C55.6934 18 55.3967 17.6733 55.1834 17.26C54.9767 16.8467 54.8734 16.38 54.8734 15.86C54.8734 15.3333 54.9834 14.8667 55.2034 14.46C55.4234 14.0467 55.73 13.72 56.1234 13.48C56.5167 13.24 56.9667 13.12 57.4734 13.12ZM62.9789 13.15C63.4389 13.15 63.7956 13.25 64.0489 13.45C64.3022 13.6433 64.4789 13.9067 64.5789 14.24C64.6856 14.5733 64.7389 14.94 64.7389 15.34V17.99C64.7389 18.1367 64.6889 18.26 64.5889 18.36C64.4956 18.4533 64.3789 18.5 64.2389 18.5C64.0922 18.5 63.9722 18.4533 63.8789 18.36C63.7856 18.26 63.7389 18.1367 63.7389 17.99V15.34C63.7389 15.1067 63.7056 14.8933 63.6389 14.7C63.5789 14.5067 63.4689 14.3533 63.3089 14.24C63.1556 14.1267 62.9389 14.07 62.6589 14.07C62.3989 14.07 62.1656 14.1267 61.9589 14.24C61.7589 14.3533 61.6022 14.5067 61.4889 14.7C61.3822 14.8933 61.3289 15.1067 61.3289 15.34V17.99C61.3289 18.1367 61.2789 18.26 61.1789 18.36C61.0856 18.4533 60.9689 18.5 60.8289 18.5C60.6822 18.5 60.5622 18.4533 60.4689 18.36C60.3756 18.26 60.3289 18.1367 60.3289 17.99V11.61C60.3289 11.4633 60.3756 11.3433 60.4689 11.25C60.5622 11.15 60.6822 11.1 60.8289 11.1C60.9689 11.1 61.0856 11.15 61.1789 11.25C61.2789 11.3433 61.3289 11.4633 61.3289 11.61V14.34L61.1489 14.44C61.1956 14.2933 61.2722 14.1433 61.3789 13.99C61.4922 13.8367 61.6289 13.6967 61.7889 13.57C61.9556 13.4433 62.1389 13.3433 62.3389 13.27C62.5389 13.19 62.7522 13.15 62.9789 13.15ZM74.2729 11.5C74.4062 11.5 74.5129 11.5467 74.5929 11.64C74.6796 11.7267 74.7229 11.8367 74.7229 11.97V17.99C74.7229 18.1367 74.6729 18.26 74.5729 18.36C74.4796 18.4533 74.3596 18.5 74.2129 18.5C74.1462 18.5 74.0729 18.4867 73.9929 18.46C73.9196 18.4333 73.8629 18.3967 73.8229 18.35L69.7129 13.02L69.9429 12.89V18.04C69.9429 18.1667 69.8996 18.2767 69.8129 18.37C69.7262 18.4567 69.6162 18.5 69.4829 18.5C69.3429 18.5 69.2296 18.4567 69.1429 18.37C69.0629 18.2767 69.0229 18.1667 69.0229 18.04V12.01C69.0229 11.8567 69.0729 11.7333 69.1729 11.64C69.2729 11.5467 69.3929 11.5 69.5329 11.5C69.6062 11.5 69.6829 11.5167 69.7629 11.55C69.8496 11.5767 69.9129 11.62 69.9529 11.68L73.9629 16.9L73.8129 17.04V11.97C73.8129 11.8367 73.8562 11.7267 73.9429 11.64C74.0296 11.5467 74.1396 11.5 74.2729 11.5ZM81.2869 15.87C81.2869 16.4033 81.1702 16.8767 80.9369 17.29C80.7035 17.6967 80.3869 18.0167 79.9869 18.25C79.5869 18.4833 79.1369 18.6 78.6369 18.6C78.1369 18.6 77.6869 18.4833 77.2869 18.25C76.8869 18.0167 76.5669 17.6967 76.3269 17.29C76.0935 16.8767 75.9769 16.4033 75.9769 15.87C75.9769 15.33 76.0935 14.8567 76.3269 14.45C76.5669 14.0367 76.8869 13.7133 77.2869 13.48C77.6869 13.24 78.1369 13.12 78.6369 13.12C79.1369 13.12 79.5869 13.24 79.9869 13.48C80.3869 13.7133 80.7035 14.0367 80.9369 14.45C81.1702 14.8567 81.2869 15.33 81.2869 15.87ZM80.2869 15.87C80.2869 15.5033 80.2135 15.1867 80.0669 14.92C79.9202 14.6467 79.7202 14.4333 79.4669 14.28C79.2202 14.12 78.9435 14.04 78.6369 14.04C78.3302 14.04 78.0502 14.12 77.7969 14.28C77.5435 14.4333 77.3435 14.6467 77.1969 14.92C77.0502 15.1867 76.9769 15.5033 76.9769 15.87C76.9769 16.2233 77.0502 16.5367 77.1969 16.81C77.3435 17.0833 77.5435 17.2967 77.7969 17.45C78.0502 17.6033 78.3302 17.68 78.6369 17.68C78.9435 17.68 79.2202 17.6033 79.4669 17.45C79.7202 17.2967 79.9202 17.0833 80.0669 16.81C80.2135 16.5367 80.2869 16.2233 80.2869 15.87ZM88.5488 13.19C88.6754 13.19 88.7854 13.24 88.8788 13.34C88.9788 13.4333 89.0288 13.5567 89.0288 13.71C89.0288 13.7433 89.0254 13.7767 89.0188 13.81C89.0121 13.8433 89.0021 13.8733 88.9888 13.9L87.4588 18.18C87.4188 18.2933 87.3488 18.38 87.2488 18.44C87.1488 18.4933 87.0454 18.5133 86.9388 18.5C86.7454 18.4867 86.6021 18.38 86.5088 18.18L85.3788 15.18L85.6088 15.2L84.5688 18.18C84.4754 18.38 84.3321 18.4867 84.1388 18.5C84.0388 18.5133 83.9354 18.4933 83.8288 18.44C83.7288 18.38 83.6588 18.2933 83.6188 18.18L82.0788 13.9C82.0521 13.84 82.0388 13.7767 82.0388 13.71C82.0388 13.57 82.0821 13.45 82.1688 13.35C82.2621 13.2433 82.3854 13.19 82.5388 13.19C82.6454 13.19 82.7388 13.2167 82.8188 13.27C82.9054 13.3233 82.9654 13.4033 82.9988 13.51L84.2788 17.12L84.0488 17.1L85.0888 14.37C85.1754 14.1633 85.3288 14.06 85.5488 14.06C85.6688 14.06 85.7621 14.0867 85.8288 14.14C85.8954 14.1933 85.9488 14.27 85.9888 14.37L87.0488 17.11L86.7788 17.14L88.0688 13.51C88.1354 13.2967 88.2954 13.19 88.5488 13.19Z" fill="white"/>
</svg>
